<svg width="397" height="400" viewBox="0 0 397 400" xmlns="http://www.w3.org/2000/svg" xmlns:xlink="http://www.w3.org/1999/xlink"><defs><path id="a" d="M198.020792 0h198.018812v400H.0019802V0z"/></defs><g fill="none" fill-rule="evenodd"><mask id="b" fill="#fff"><use xlink:href="#a"/></mask><path d="M396.041584 200c0 110.456-88.657426 200-198.019802 200C88.6594059 400 .0019802 310.456.0019802 200S88.6594059 0 198.021782 0c109.362376 0 198.019802 89.544 198.019802 200" fill="#F84856" mask="url(#b)"/><path d="M310.77703 161.242L203.727525 105.85c-3.877228-2.032-8.368317-2.032-12.241584 0L84.4364356 161.242c-3.8772277 2.032-3.8772277 8.136.1544555 10.168l35.6316829 17.84 71.417822 35.832c2.015842.94 4.186139 1.408 6.352475 1.408 1.857426 0 3.873268-.468 5.580198-1.408l51.124753-25.66-54.689109-26.912c-.621782.152-1.239604.312-2.015842.312h-.463366c-4.49505 0-8.055446-2.664-8.055446-6.104 0-3.444 3.560396-6.256 8.055446-6.256h.463366c4.336634.156 7.592079 2.968 7.592079 6.256 0 .312 0 .468-.158415.784l57.481188 27.852 11.928713-5.948 35.940594-17.996c3.877227-2.032 4.031683-8.136 0-10.168M264.145347 266.8592c-.308911-.312-.617822-.464-.926733-.312-.621782-.312-1.243564-.468-2.015842-.468-.308911 0-.617822 0-.930693.156-.308911 0-.776237 0-1.085148.16-.308911 0-.617822.152-.926733.308-2.633663 1.252-4.495049 3.756-4.495049 6.888v40.368c0 .624.467326 1.096 1.085148 1.096h12.70099c.467327 0 .934654-.472.934654-1.096v-40.368c0-2.66-1.243565-5.008-3.259406-6.104-.308911-.472-.617822-.628-1.081188-.628M265.073663 252.1524l.930693-.704.930694-.704c.772277-.628 1.394059-1.252 2.015841-1.72 1.235644-1.096 2.475248-2.348 3.714852-3.444 1.398019-1.252 2.170297-3.284 2.170297-5.324v-40.68l-10.071288 5.008.308911 47.568z" fill="#FFF"/><path d="M258.104554 257.4728l-.463366-49.288-50.661386 25.348c-2.788119 1.408-5.889109 2.192-8.986139 2.192-3.097029 0-6.198019-.784-8.827722-2.192l-68.942575-34.58v42.092c0 2.032.926733 4.064 2.320792 5.32 20.455446 19.4 46.324753 30.98 74.677228 30.98h.772277c3.409901 0 6.661387-.156 9.912872-.624 2.324752-.16 4.649505-.472 6.819802-1.1 15.025742-2.5 28.970297-8.288 41.671287-16.74.625742-.468 1.089109-.94 1.70693-1.408" fill="#FFF"/></g></svg>