<svg width="400" height="400" viewBox="0 0 400 400" xmlns="http://www.w3.org/2000/svg" xmlns:xlink="http://www.w3.org/1999/xlink"><defs><path id="a" d="M200.0002 0H400v400H.0004V0z"/><path id="c" d="M0 400h400V0H0z"/></defs><g fill="none" fill-rule="evenodd"><mask id="b" fill="#fff"><use xlink:href="#a"/></mask><path d="M341.4224 58.578c78.104 78.104 78.104 204.74 0 282.844-78.104 78.104-204.74 78.104-282.844 0-78.104-78.104-78.104-204.74 0-282.844 78.104-78.104 204.74-78.104 282.844 0" fill="#8D57F7" mask="url(#b)"/><mask id="d" fill="#fff"><use xlink:href="#c"/></mask><path d="M237.016 156.572h23.94v-23.944h-23.94v23.944zm0 55.604h23.94v-23.944h-23.94v23.944zm0 55.452h23.94v-23.944h-23.94v23.944zm40.956-171.236h-108.38c-6.616 0-11.816 5.356-11.816 11.816v40.172h28.668v-15.756h23.948v15.756c10.712 0 19.376 8.66 19.376 19.372V303.86h60.016V108.208c0-6.46-5.352-11.816-11.812-11.816z" fill="#FFF" mask="url(#d)"/><path d="M170.696 212.176h23.784v-23.944h-23.784v23.944zm0 55.452h23.784v-23.944h-23.784v23.944zm-50.568-55.452h23.944v-23.944h-23.944v23.944zm0 55.452h23.944v-23.944h-23.944v23.944zm90.264-111.056H105.476c-6.456 0-11.816 5.352-11.816 11.812v135.632h128.076V168.384c0-6.3-5.044-11.5-11.344-11.812z" fill="#FFF" mask="url(#d)"/></g></svg>