<svg width="400" height="400" viewBox="0 0 400 400" xmlns="http://www.w3.org/2000/svg"><g fill="none" fill-rule="evenodd"><path d="M341.4228 58.578c78.1 78.104 78.1 204.74 0 282.844-78.104 78.104-204.74 78.104-282.844 0-78.104-78.104-78.104-204.74 0-282.844 78.104-78.104 204.74-78.104 282.844 0" fill="#FBBE28"/><path d="M293.2472 182.7968c0 14.76-5.748 28.748-16.164 39.16l-73.812 73.816c-4.04 4.04-10.568 4.04-14.608 0l-.468-.468c-2.02-2.02-3.108-4.508-3.108-7.304 0-2.792 1.088-5.44 3.108-7.3l48.02-48.176.932-.932-5.904-5.904-49.108 48.948c-3.884 4.044-10.568 4.044-14.608 0l-.464-.464c-1.868-1.868-2.952-4.504-2.952-7.304 0-2.8 1.084-5.284 2.952-7.308l48.172-48.016.932-.932-6.06-5.9-48.948 48.948c-4.04 4.04-10.568 4.04-14.608 0l-.624-.468c-3.884-4.04-3.884-10.564 0-14.608l44.908-44.912c2.492 1.712 5.444 2.8 8.24 3.268 7.148 1.24 14.296-.932 19.424-5.908.776-.776 1.396-1.708 2.176-2.644 6.216-8.544 5.284-20.82-2.176-28.28l-18.024-18.024c21.596-19.892 55.632-19.272 76.608 1.552 10.416 10.412 16.164 24.4 16.164 39.16" fill="#FFF"/><path d="M184.622 188.082l-44.596 44.44c-4.044 4.04-10.568 4.04-14.612 0l-.464-.464c-4.044-4.04-4.044-10.564 0-14.608l44.596-44.6 15.076 15.232z" fill="#FFF"/><path d="M214.458 182.9532c-.62.776-1.244 1.552-1.864 2.176-4.508 4.66-11.812 5.284-17.248 1.708-.624-.468-1.244-.932-2.02-1.708l-24.088-24.088-57.652 57.656c-9.792-10.26-15.072-23.468-15.072-37.608 0-14.456 5.748-28.128 16.004-38.384s23.776-16.004 38.384-16.004h.152c12.28 0 24.4 4.348 33.88 11.964 1.244.932 2.64 2.176 4.04 3.572l23.62 23.624c4.504 4.504 5.28 11.652 1.864 17.092" fill="#FFF"/></g></svg>