<svg width="400" height="400" viewBox="0 0 400 400" xmlns="http://www.w3.org/2000/svg"><g fill="none" fill-rule="evenodd"><path d="M400 200c0 110.456-89.544 200-200 200S0 310.456 0 200 89.544 0 200 0s200 89.544 200 200" fill="#7FDC42"/><path d="M90.1424 275.6212v21.44h41.308v-67.752c-23.312 2.504-41.308 22.22-41.308 46.312M204.3672 288.4532c-3.752 0-6.884-3.128-6.884-6.884 0-3.752 3.132-6.884 6.884-6.884 3.756 0 6.888 3.132 6.888 6.884 0 3.756-3.132 6.884-6.888 6.884zm0-22.376l-23.472-37.084h-40.368v68.068h127.836v-68.068h-40.524l-23.472 37.084zM277.2852 229.3084v67.752h41.308v-21.44c0-24.092-17.996-43.808-41.308-46.312M236.758 163.746c0 17.836-14.552 32.236-32.392 32.236-17.836 0-32.388-14.4-32.388-32.236h64.78zm-32.392 53.044c34.272 0 62.124-27.852 62.124-62.12 0-34.424-27.852-62.12-62.124-62.12-34.264 0-62.116 27.696-62.116 62.12 0 34.268 27.852 62.12 62.116 62.12z" fill="#FFF"/></g></svg>