<?xml version="1.0" encoding="utf-8"?>
<!-- Generator: Adobe Illustrator 16.0.0, SVG Export Plug-In . SVG Version: 6.00 Build 0)  -->
<!DOCTYPE svg PUBLIC "-//W3C//DTD SVG 1.1//EN" "http://www.w3.org/Graphics/SVG/1.1/DTD/svg11.dtd">
<svg version="1.1" id="Layer_1" xmlns="http://www.w3.org/2000/svg" xmlns:xlink="http://www.w3.org/1999/xlink" x="0px" y="0px"
	 width="166.75px" height="90.704px" viewBox="115 115 166.75 90.704" enable-background="new 115 115 166.75 90.704"
	 xml:space="preserve">
<g id="Custom_Size_1">
	<g id="Group_1" transform="translate(32 81)">
		<g id="Group_48" transform="translate(-5 6)">
			<path id="Path_6" fill="#FFFFFF" d="M134.154,95.954c-0.969,0.854-2.188,1.374-3.475,1.477c-1.231,0.107-2.462-0.221-3.476-0.928
				c-1.129-0.825-1.995-1.963-2.49-3.271c-0.65-1.776-0.831-3.692-0.521-5.56c0.23-1.969,0.578-4.054,1.044-6.254
				s0.946-4.313,1.443-6.338c0.501-2.026,0.994-3.842,1.478-5.444c0.483-1.604,0.879-2.791,1.187-3.562
				c-0.193,0.305-0.55,0.922-1.07,1.849c-0.52,0.93-1.108,2-1.765,3.215c-0.658,1.216-1.362,2.53-2.114,3.942
				c-0.753,1.41-1.449,2.771-2.09,4.083c-0.636,1.313-1.187,2.511-1.65,3.591c-0.367,0.802-0.658,1.634-0.868,2.49
				c-0.078,0.27-0.396,0.444-0.955,0.522c-0.62,0.073-1.249,0.034-1.853-0.117c-0.662-0.146-1.284-0.434-1.825-0.84
				c-0.549-0.421-0.87-1.074-0.868-1.767c-0.026-0.727,0.022-1.454,0.145-2.172c0.135-0.945,0.319-2.017,0.55-3.213
				c0.231-1.197,0.502-2.442,0.81-3.736c0.31-1.293,0.608-2.528,0.897-3.704c0.29-1.175,0.551-2.237,0.783-3.185
				c0.23-0.946,0.425-1.651,0.579-2.113c-1.428,2.279-2.781,4.645-4.054,7.095s-2.451,4.893-3.533,7.325s-2.065,4.769-2.954,7.008
				c-0.888,2.24-1.639,4.283-2.254,6.131c-0.155,0.463-0.618,0.694-1.39,0.694c-0.813-0.008-1.613-0.196-2.345-0.549
				c-0.769-0.349-1.444-0.875-1.97-1.535c-0.521-0.659-0.623-1.558-0.259-2.315c0.886-2.124,1.667-4.055,2.345-5.794
				c0.678-1.739,1.411-3.708,2.202-5.905c0.79-2.201,1.563-4.448,2.317-6.743s1.41-4.543,1.968-6.743
				c0.507-1.936,0.903-3.898,1.187-5.878c0.238-1.371,0.228-2.773-0.028-4.14c-0.253-1.043-0.824-1.564-1.71-1.564
				c-1.127,0.126-2.183,0.614-3.012,1.39c-1.208,1.026-2.278,2.204-3.185,3.504c-1.109,1.555-2.104,3.187-2.98,4.884
				c-0.932,1.78-1.726,3.629-2.375,5.531c-0.611,1.77-1.057,3.591-1.33,5.442c-0.258,1.508-0.228,3.05,0.086,4.546
				c0.204,0.928,0.873,1.682,1.768,1.995c0.998,0.316,2.085,0.133,2.924-0.492c-0.203,0.638-0.65,1.169-1.246,1.477
				c-0.708,0.416-1.499,0.673-2.316,0.753c-0.9,0.095-1.811,0.035-2.692-0.174c-0.919-0.208-1.762-0.668-2.432-1.329
				c-0.748-0.767-1.277-1.717-1.536-2.755c-0.33-1.45-0.32-2.956,0.03-4.401c0.562-2.743,1.406-5.422,2.518-7.992
				c1.126-2.688,2.564-5.234,4.286-7.586c1.565-2.165,3.461-4.069,5.617-5.647c1.877-1.422,4.161-2.204,6.516-2.23
				c1.405-0.089,2.789,0.379,3.851,1.304c0.922,0.895,1.557,2.044,1.824,3.3c0.318,1.483,0.414,3.006,0.286,4.519
				c-0.119,1.691-0.351,3.373-0.696,5.033c-0.348,1.68-0.753,3.272-1.217,4.778s-0.868,2.761-1.217,3.764
				c0.618-1.235,1.438-2.779,2.461-4.633c1.025-1.854,2.078-3.716,3.157-5.589c1.081-1.872,2.113-3.6,3.098-5.183
				c0.722-1.198,1.505-2.358,2.346-3.475c0.376-0.405,0.959-0.542,1.477-0.348c0.712,0.172,1.383,0.487,1.969,0.927
				c0.6,0.425,1.12,0.955,1.535,1.563c0.361,0.392,0.452,0.963,0.231,1.448c-0.97,1.714-1.794,3.506-2.461,5.358
				c-0.716,1.95-1.333,3.822-1.854,5.618c-0.521,1.796-0.936,3.397-1.246,4.808c-0.311,1.408-0.542,2.401-0.695,2.98
				c0.231-0.462,0.694-1.331,1.39-2.605c0.695-1.275,1.516-2.771,2.461-4.488c0.946-1.71,1.979-3.528,3.097-5.457
				c1.117-1.928,2.219-3.752,3.3-5.473c1.081-1.717,2.085-3.251,3.013-4.603c0.658-1.02,1.416-1.972,2.263-2.841
				c0.373-0.288,0.876-0.343,1.304-0.145c0.624,0.185,1.218,0.458,1.767,0.81c0.544,0.337,1.024,0.768,1.419,1.273
				c0.347,0.342,0.429,0.872,0.202,1.303c-0.58,1.004-1.276,2.404-2.091,4.199c-0.813,1.795-1.66,3.831-2.543,6.108
				c-0.887,2.279-1.764,4.702-2.634,7.269s-1.633,5.095-2.288,7.587c-0.658,2.49-1.169,4.864-1.535,7.123
				c-0.349,1.948-0.477,3.93-0.381,5.907c0.021,1.38,0.433,2.725,1.188,3.88C131.75,95.88,132.993,96.278,134.154,95.954z"/>
			<path id="Path_19" fill="#FFFFFF" d="M124.36,32.833l0.78-0.887l-1.177-0.081l-1.568-0.108l-0.508-0.034l-0.262-0.441
				l-0.799-1.352l-0.601-1.017l-0.441,1.096l-0.586,1.456l-0.191,0.475l-0.498,0.111l-1.531,0.342l-1.154,0.257l0.905,0.76
				l1.204,1.008l0.393,0.329l-0.048,0.508l-0.148,1.563l-0.111,1.177l1.002-0.626l1.33-0.834l0.432-0.271l0.471,0.203l1.439,0.625
				l1.084,0.47l-0.285-1.146l-0.38-1.52l-0.122-0.496l0.337-0.379L124.36,32.833z M122.542,35.03l0.38,1.52l-1.441-0.624
				l-0.75-0.325l-0.695,0.434l-1.329,0.833l0.148-1.564l0.077-0.813l-0.627-0.525l-1.204-1.008l1.532-0.342l0.797-0.178l0.305-0.76
				l0.588-1.456l0.799,1.352l0.416,0.705l0.816,0.056l1.565,0.108l-1.039,1.177l-0.541,0.614L122.542,35.03z"/>
			<path id="Path_20" fill="#FFFFFF" d="M132.169,42.273l0.915-1.036l-1.38-0.095l-1.833-0.126l-0.597-0.041l-0.303-0.516
				l-0.936-1.582l-0.704-1.19l-0.517,1.282l-0.688,1.704l-0.223,0.555l-0.583,0.13l-1.793,0.4l-1.35,0.302l1.06,0.888l1.408,1.178
				l0.459,0.38l-0.057,0.596l-0.173,1.828l-0.131,1.376l1.172-0.733l1.557-0.976l0.506-0.317l0.55,0.238l1.685,0.729l1.27,0.549
				l-0.335-1.34l-0.447-1.782l-0.145-0.58l0.395-0.449L132.169,42.273z M130.042,44.845l0.446,1.782l-1.687-0.73l-0.878-0.38
				l-0.812,0.508l-1.557,0.974l0.173-1.829l0.09-0.95l-0.733-0.614l-1.407-1.179l1.792-0.401l0.935-0.208l0.357-0.887l0.687-1.704
				l0.936,1.582l0.486,0.823l0.954,0.065l1.833,0.126l-1.215,1.377l-0.635,0.717L130.042,44.845z"/>
			<path id="Path_21" fill="#FFFFFF" d="M117.973,46.46l0.714-0.125l-0.533-0.49l-0.71-0.651l-0.231-0.211l0.044-0.311l0.134-0.95
				l0.101-0.718l-0.63,0.356l-0.84,0.475l-0.273,0.154l-0.285-0.138l-0.865-0.423l-0.651-0.318l0.143,0.71l0.189,0.95l0.063,0.308
				l-0.219,0.225l-0.664,0.693l-0.504,0.521l0.72,0.083l0.957,0.11l0.312,0.036l0.146,0.277l0.452,0.854l0.341,0.641l0.302-0.659
				l0.4-0.876l0.13-0.285l0.31-0.054L117.973,46.46z M116.265,46.817l-0.4,0.876l-0.452-0.855l-0.235-0.442l-0.499-0.057
				l-0.958-0.111l0.67-0.691l0.349-0.361l-0.094-0.493l-0.191-0.944l0.866,0.424l0.451,0.219l0.438-0.246l0.838-0.475l-0.134,0.95
				l-0.069,0.497l0.369,0.339l0.71,0.651l-0.95,0.167l-0.495,0.086L116.265,46.817z"/>
			<path id="Path_22" fill="#FFFFFF" d="M131.189,32.777l0.419-0.074l-0.313-0.285l-0.416-0.38l-0.135-0.124l0.024-0.182
				l0.079-0.559l0.06-0.421l-0.371,0.209l-0.492,0.277l-0.161,0.095l-0.165-0.082l-0.508-0.248l-0.38-0.189l0.084,0.417l0.113,0.552
				l0.036,0.181l-0.128,0.132l-0.394,0.406l-0.296,0.305l0.423,0.049l0.563,0.064l0.183,0.021l0.086,0.162l0.265,0.499l0.2,0.38
				l0.176-0.387l0.235-0.513l0.076-0.168l0.181-0.031L131.189,32.777z M130.185,32.986L129.95,33.5l-0.265-0.499l-0.139-0.26
				l-0.292-0.034l-0.56-0.063l0.393-0.408l0.202-0.21l-0.057-0.285l-0.111-0.555l0.507,0.248l0.265,0.13l0.256-0.146l0.493-0.277
				l-0.079,0.559l-0.041,0.292l0.217,0.2l0.415,0.38l-0.556,0.095l-0.29,0.052L130.185,32.986z"/>
			<path id="Path_23" fill="#FFFFFF" d="M153.297,53.119l1.515-0.686l-1.466-0.785l-1.944-1.044l-0.634-0.34l-0.08-0.714
				l-0.244-2.194l-0.183-1.652l-1.199,1.15l-1.593,1.529l-0.518,0.497l-0.704-0.146l-2.161-0.445l-1.627-0.335l0.724,1.495
				l0.961,1.987l0.312,0.646l-0.354,0.625l-1.093,1.918l-0.821,1.444l1.646-0.226l2.184-0.302l0.712-0.095l0.483,0.531l1.488,1.632
				l1.118,1.228l0.295-1.636l0.39-2.172l0.128-0.707l0.655-0.296L153.297,53.119z M149.697,54.887l-0.39,2.173l-1.487-1.631
				l-0.774-0.85l-1.141,0.156l-2.183,0.3l1.091-1.918l0.57-0.999l-0.502-1.034l-0.961-1.987l2.162,0.445l1.127,0.232l0.829-0.796
				l1.591-1.529l0.245,2.194l0.127,1.14l1.014,0.543l1.946,1.045l-2.012,0.911l-1.045,0.475L149.697,54.887z"/>
		</g>
		<g id="Group_63" transform="translate(-6046 171)">
			<path id="Path_7" fill="#FFFFFF" d="M6203.289-98.35c0.172-0.175,0.423-0.252,0.664-0.204c0.324,0.02,0.64,0.108,0.925,0.261
				c0.278,0.145,0.517,0.352,0.696,0.607c0.172,0.229,0.185,0.542,0.028,0.783c-0.733,1.274-1.573,2.692-2.518,4.257
				c-0.946,1.564-1.951,3.099-3.013,4.604c-1.002,1.431-2.095,2.795-3.272,4.084c-0.922,1.064-2.043,1.94-3.3,2.576
				c-0.567,0.27-1.204,0.36-1.824,0.262c-0.617-0.089-1.209-0.306-1.737-0.638c-0.514-0.321-0.965-0.733-1.33-1.217
				c-0.335-0.405-0.546-0.896-0.607-1.419c-0.059-0.855,0.02-1.717,0.231-2.548c0.231-1.08,0.482-2.064,0.754-2.954
				c-0.463,0.541-0.957,1.169-1.478,1.882c-0.521,0.715-1.091,1.477-1.709,2.289c-0.618,0.811-1.265,1.622-1.94,2.433
				c-0.66,0.793-1.365,1.547-2.113,2.258c-0.439,0.374-1.028,0.523-1.593,0.404c-0.734-0.082-1.448-0.287-2.114-0.607
				c-0.678-0.315-1.295-0.746-1.824-1.274c-0.477-0.408-0.725-1.023-0.666-1.649c0.147-1.602,0.498-3.179,1.046-4.69
				c0.58-1.664,1.287-3.28,2.113-4.837c0.81-1.527,1.738-2.989,2.781-4.369c0.889-1.208,1.908-2.314,3.038-3.3
				c0.575-0.505,1.274-0.846,2.027-0.985c0.605-0.078,1.222-0.008,1.795,0.204c0.617,0.232,1.201,0.543,1.737,0.926
				c0.579,0.404,1.196,0.8,1.853,1.186c0.424-0.463,0.839-0.955,1.245-1.477c0.406-0.521,0.841-1.033,1.303-1.534
				c0.326-0.367,0.827-0.523,1.304-0.406c0.61,0.082,1.194,0.299,1.709,0.637c0.515,0.323,0.958,0.746,1.305,1.245
				c0.321,0.386,0.356,0.937,0.086,1.362c-1.152,1.933-2.206,3.925-3.157,5.965c-0.671,1.429-1.25,2.899-1.736,4.402
				c-0.31,0.876-0.486,1.794-0.521,2.722c0.019,0.617,0.164,0.925,0.435,0.925c0.773-0.037,1.95-1.079,3.533-3.127
				C6199.575-92.202,6201.527-95.22,6203.289-98.35z M6189.22-96.092c0.138-0.246,0.199-0.528,0.173-0.81
				c0.004-0.366-0.064-0.73-0.202-1.071c-0.094-0.287-0.319-0.513-0.607-0.608c-0.27-0.076-0.618,0.117-1.045,0.58
				c-0.934,0.905-1.761,1.916-2.462,3.011c-0.72,1.103-1.377,2.244-1.968,3.419c-0.512,1.008-0.966,2.042-1.361,3.099
				c-0.284,0.673-0.46,1.386-0.521,2.114c0.608-0.53,1.18-1.103,1.709-1.711c0.714-0.79,1.457-1.669,2.229-2.634
				c0.773-0.967,1.525-1.931,2.259-2.896C6188.154-94.565,6188.753-95.396,6189.22-96.092z"/>
			<path id="Path_8" fill="#FFFFFF" d="M6225.061-96.266c0.386-0.189,0.666-0.161,0.84,0.087c0.185,0.304,0.247,0.666,0.175,1.014
				c-0.08,0.494-0.237,0.973-0.464,1.418c-0.237,0.506-0.606,0.936-1.072,1.246c-1.467,0.887-2.865,1.793-4.197,2.722
				c-1.332,0.928-2.598,1.895-3.794,2.896c-0.511,0.406-0.927,0.92-1.217,1.506c-0.732,1.583-1.63,3.359-2.691,5.329
				c-1.062,1.969-2.19,3.87-3.388,5.704c-1.083,1.683-2.292,3.28-3.618,4.777c-0.911,1.132-2.099,2.009-3.447,2.548
				c-0.703,0.147-1.431,0.107-2.113-0.115c-0.94-0.229-1.826-0.643-2.606-1.216c-0.771-0.553-1.364-1.317-1.709-2.201
				c-0.329-1.028-0.134-2.152,0.52-3.011c1.04-1.614,2.265-3.102,3.649-4.432c1.545-1.524,3.089-2.943,4.633-4.257
				c1.543-1.313,2.923-2.472,4.14-3.476c0.809-0.583,1.521-1.288,2.115-2.088c0.468-0.868,0.874-1.769,1.216-2.693
				c0.386-1.022,0.713-1.92,0.984-2.692c-0.541,0.657-1.149,1.391-1.824,2.2c-0.677,0.81-1.391,1.621-2.144,2.432
				c-0.753,0.813-1.516,1.564-2.287,2.26c-0.691,0.631-1.427,1.211-2.201,1.736c-0.512,0.285-1.11,0.367-1.68,0.231
				c-0.699-0.117-1.374-0.352-1.994-0.694c-0.612-0.326-1.152-0.769-1.594-1.303c-0.397-0.427-0.569-1.019-0.464-1.592
				c0.311-1.508,0.797-2.975,1.449-4.369c0.699-1.531,1.521-3.004,2.46-4.401c0.919-1.374,1.935-2.681,3.04-3.909
				c0.972-1.097,2.059-2.088,3.243-2.954c0.558-0.44,1.212-0.739,1.911-0.869c0.544-0.08,1.101-0.03,1.622,0.145
				c0.527,0.188,1.025,0.451,1.477,0.782c0.482,0.347,0.976,0.714,1.478,1.101c0.152-0.19,0.379-0.501,0.665-0.927
				c0.183-0.3,0.406-0.572,0.664-0.811c0.374-0.279,0.838-0.414,1.304-0.379c0.52,0.019,1.029,0.138,1.506,0.347
				c0.445,0.188,0.85,0.464,1.188,0.811c0.28,0.259,0.431,0.632,0.404,1.013c-0.153,0.811-0.367,1.689-0.636,2.635
				c-0.271,0.946-0.551,1.901-0.841,2.867c-0.289,0.966-0.578,1.893-0.868,2.779c-0.289,0.889-0.53,1.66-0.725,2.317
				c1.428-1.004,2.673-1.854,3.735-2.549C6222.967-94.994,6224.019-95.65,6225.061-96.266z M6199.06-70.783
				c1.456-1.109,2.753-2.415,3.851-3.881c1.229-1.568,2.361-3.213,3.388-4.922c-0.696,0.695-1.458,1.468-2.288,2.315
				c-0.827,0.848-1.609,1.688-2.345,2.519c-0.657,0.732-1.267,1.506-1.825,2.316C6199.46-71.949,6199.193-71.385,6199.06-70.783
				L6199.06-70.783z M6212.725-98.119c0.204-0.334,0.361-0.693,0.464-1.071c0.106-0.327,0.154-0.67,0.145-1.014
				c-0.021-0.269-0.135-0.423-0.347-0.462c-0.21-0.039-0.567,0.154-1.072,0.579c-0.829,0.714-1.593,1.499-2.287,2.346
				c-0.753,0.907-1.458,1.844-2.113,2.809c-0.656,0.965-1.234,1.892-1.737,2.78c-0.433,0.739-0.802,1.515-1.102,2.317
				c-0.076,0.346,0,0.52,0.232,0.52c0.452-0.117,0.863-0.358,1.188-0.694c0.685-0.588,1.323-1.227,1.911-1.911
				c0.714-0.811,1.486-1.746,2.316-2.81C6211.152-95.793,6211.953-96.922,6212.725-98.119L6212.725-98.119z"/>
			<path id="Path_9" fill="#FFFFFF" d="M6233.922-96.727c0.152-0.244,0.41-0.406,0.695-0.436c0.251-0.022,0.501,0.028,0.724,0.146
				c0.208,0.112,0.386,0.271,0.521,0.463c0.134,0.167,0.146,0.4,0.029,0.579c-0.425,0.887-1.042,2.045-1.853,3.475
				c-0.811,1.432-1.697,2.86-2.66,4.286c-0.909,1.356-1.905,2.651-2.983,3.879c-0.747,0.938-1.686,1.709-2.753,2.26
				c-0.556,0.199-1.153,0.259-1.737,0.173c-0.646-0.073-1.272-0.26-1.854-0.55c-0.562-0.274-1.056-0.67-1.448-1.157
				c-0.379-0.464-0.566-1.054-0.521-1.651c0.081-1.044,0.246-2.08,0.493-3.098c0.315-1.39,0.703-2.762,1.157-4.112
				c0.484-1.447,1.015-2.876,1.594-4.285c0.501-1.252,1.102-2.463,1.796-3.62c0.287-0.351,0.738-0.526,1.187-0.462
				c0.605,0.001,1.206,0.118,1.767,0.346c0.539,0.207,1.033,0.522,1.448,0.926c0.362,0.293,0.479,0.794,0.284,1.217
				c-1.431,2.619-2.668,5.339-3.704,8.138c-0.657,1.95-0.868,3.214-0.637,3.793c0.154,0.425,0.482,0.473,0.985,0.144
				c0.714-0.534,1.347-1.168,1.883-1.882c0.751-0.927,1.609-2.123,2.576-3.591C6231.876-93.216,6232.879-94.875,6233.922-96.727z"/>
			<path id="Path_10" fill="#FFFFFF" d="M6250.948-98.002c0.115-0.153,0.299-0.184,0.55-0.087c0.267,0.105,0.52,0.24,0.753,0.404
				c0.239,0.163,0.447,0.369,0.61,0.607c0.152,0.233,0.191,0.406,0.113,0.521c-0.616,1.044-1.398,2.366-2.345,3.968
				s-2,3.204-3.157,4.807c-1.115,1.555-2.365,3.007-3.734,4.344c-1.143,1.181-2.569,2.047-4.142,2.519
				c-0.83,0.194-1.694,0.184-2.518-0.028c-0.983-0.212-1.937-0.542-2.838-0.985c-0.87-0.417-1.67-0.965-2.375-1.622
				c-0.595-0.483-0.979-1.179-1.072-1.94c-0.107-1.161-0.038-2.333,0.202-3.474c0.268-1.371,0.646-2.717,1.13-4.025
				c0.511-1.389,1.109-2.742,1.796-4.054c0.653-1.267,1.408-2.477,2.258-3.619c0.734-0.999,1.58-1.913,2.519-2.722
				c0.72-0.652,1.582-1.128,2.52-1.389c0.45-0.083,0.916-0.023,1.33,0.174c0.386,0.193,0.943,0.483,1.679,0.868
				c0.19-0.309,0.48-0.724,0.868-1.245c0.198-0.324,0.452-0.609,0.753-0.84c0.521-0.23,1.12-0.209,1.623,0.058
				c0.604,0.264,1.163,0.625,1.649,1.071c0.444,0.396,0.815,0.866,1.102,1.39c0.252,0.484,0.243,0.841-0.03,1.071
				c-0.749,0.713-1.438,1.487-2.055,2.316c-0.608,0.805-1.152,1.657-1.623,2.548c-0.401,0.745-0.722,1.532-0.955,2.346
				c-0.186,0.551-0.225,1.14-0.115,1.71c-0.223,0.256-0.569,0.366-0.9,0.285c-0.481-0.051-0.945-0.209-1.359-0.463
				c-0.471-0.276-0.885-0.64-1.217-1.072c-0.353-0.454-0.536-1.017-0.521-1.592c0.006-0.409,0.054-0.816,0.145-1.217
				c0.101-0.482,0.238-0.955,0.405-1.419c0.17-0.473,0.363-0.937,0.58-1.39c0.212-0.444,0.394-0.819,0.549-1.13
				c-0.747,0.43-1.367,1.049-1.795,1.796c-0.718,1.076-1.347,2.21-1.881,3.388c-0.607,1.314-1.121,2.669-1.536,4.055
				c-0.39,1.246-0.662,2.524-0.811,3.821c-0.145,0.897-0.045,1.816,0.291,2.66c0.308,0.637,0.926,0.84,1.852,0.607
				c1.077-0.292,2.063-0.851,2.867-1.622c1.037-0.944,1.996-1.971,2.868-3.068c0.965-1.196,1.938-2.519,2.923-3.968
				C6248.888-95.087,6249.904-96.542,6250.948-98.002z"/>
			<g id="Group_2" transform="translate(6161.857 -85.295)">
				<path id="Path_11" fill="#FFFFFF" d="M62.475,10.576c-1.313,1.027-2.527,2.175-3.625,3.428
					c-0.878,0.969-1.631,2.041-2.246,3.192c-0.423,0.668-0.592,1.465-0.476,2.247c0.158,0.551,0.711,0.762,1.655,0.631
					c-0.082,0.527-0.497,0.942-1.024,1.023c-0.614,0.129-1.25,0.074-1.833-0.157c-0.67-0.256-1.261-0.684-1.714-1.241
					c-0.514-0.638-0.754-1.452-0.669-2.266c0.104-0.939,0.421-1.843,0.925-2.64c0.628-1.057,1.359-2.047,2.186-2.956
					c0.94-1.044,1.961-2.012,3.054-2.896C59.82,8.029,61,7.2,62.234,6.46c1.143-0.691,2.357-1.254,3.624-1.676
					c1.076-0.374,2.211-0.548,3.351-0.513C70.042,4.331,70.852,4.58,71.574,5c0.741,0.418,1.402,0.965,1.949,1.616
					c0.521,0.615,0.911,1.333,1.139,2.107c0.225,0.708,0.204,1.473-0.058,2.168c-0.269,0.693-0.627,1.349-1.064,1.95
					c-0.433,0.597-0.897,1.168-1.398,1.71c-0.486,0.525-0.965,0.999-1.438,1.419c-0.474,0.419-0.866,0.762-1.184,1.023
					c0.825,0.104,1.606,0.424,2.267,0.927c0.709,0.495,1.306,1.133,1.753,1.871c0.972-0.342,1.858-0.657,2.66-0.95
					c0.833-0.295,1.701-0.48,2.58-0.551c0.158-0.025,0.271,0.072,0.336,0.295c0.068,0.257,0.097,0.523,0.08,0.788
					c-0.012,0.296-0.086,0.584-0.218,0.848c-0.107,0.245-0.328,0.423-0.592,0.475c-0.842,0.185-1.671,0.42-2.481,0.708
					c-0.676,0.23-1.334,0.507-1.972,0.828c-0.198,1.39-0.631,2.735-1.28,3.979c-0.738,1.458-1.608,2.842-2.601,4.138
					c-1.063,1.392-2.243,2.691-3.526,3.882c-1.265,1.183-2.638,2.244-4.1,3.172c-1.095,0.77-2.347,1.289-3.663,1.52
					c-0.885,0.185-1.807,0.031-2.582-0.433c-0.641-0.474-0.997-1.236-0.95-2.029c0.078-1.184,0.495-2.319,1.202-3.271
					c0.818-1.208,1.74-2.341,2.755-3.389c1.107-1.16,2.277-2.259,3.506-3.291c1.235-1.037,2.477-1.988,3.725-2.856
					c1.095-0.772,2.233-1.482,3.407-2.128c0.043-0.1,0.063-0.207,0.06-0.315c0.013-0.198-0.002-0.396-0.039-0.592
					c-0.043-0.219-0.117-0.432-0.217-0.631c-0.097-0.2-0.268-0.355-0.475-0.432c-0.511-0.153-1.058-0.111-1.538,0.118
					c-0.677,0.276-1.319,0.633-1.911,1.063c-0.708,0.504-1.38,1.057-2.011,1.655c-0.669,0.634-1.3,1.251-1.892,1.853
					c-0.59,0.601-1.109,1.166-1.557,1.694c-0.445,0.525-0.762,0.919-0.949,1.181c-0.214,0.367-0.585,0.614-1.004,0.67
					c-0.321,0.002-0.636-0.065-0.928-0.197c-0.354-0.171-0.654-0.438-0.866-0.769c-0.213-0.352-0.241-0.785-0.079-1.162
					c0.289-0.92,0.689-2.069,1.203-3.448c0.513-1.381,1.058-2.785,1.635-4.217c0.578-1.432,1.155-2.817,1.734-4.157
					C61.57,12.502,62.065,11.413,62.475,10.576z M58.535,35.796c0.563-0.273,1.091-0.61,1.577-1.005
					c0.632-0.485,1.302-1.056,2.009-1.71c0.706-0.654,1.428-1.357,2.166-2.108c0.736-0.748,1.412-1.49,2.029-2.227
					c0.62-0.734,1.145-1.418,1.577-2.048c0.349-0.474,0.635-0.99,0.848-1.537c-0.974,0.634-1.914,1.318-2.817,2.049
					c-1.104,0.879-2.163,1.813-3.172,2.797c-0.978,0.948-1.887,1.964-2.72,3.041C59.356,33.857,58.848,34.789,58.535,35.796z
					 M62.317,19.953c0.317-0.34,0.829-0.853,1.536-1.536c0.708-0.685,1.477-1.445,2.306-2.286c0.827-0.84,1.649-1.727,2.463-2.659
					c0.738-0.835,1.423-1.718,2.049-2.641c0.48-0.672,0.834-1.427,1.044-2.227c0.182-0.56-0.056-1.169-0.569-1.457
					c-0.342-0.174-0.731-0.223-1.104-0.139c-0.563,0.082-1.117,0.214-1.655,0.396c-0.642,0.212-1.267,0.468-1.871,0.768
					c-0.627,0.305-1.227,0.661-1.794,1.063c0.204,0.042,0.402,0.108,0.592,0.198c0.231,0.103,0.445,0.241,0.631,0.413
					c0.172,0.156,0.308,0.352,0.393,0.57c0.08,0.206,0.065,0.436-0.039,0.631c-0.343,0.656-0.689,1.371-1.044,2.146
					c-0.356,0.775-0.703,1.564-1.046,2.365c-0.342,0.802-0.678,1.583-1.004,2.345C62.875,18.664,62.581,19.348,62.317,19.953z"/>
				<path id="Path_12" fill="#FFFFFF" d="M92.62,19.953c0.119-0.117,0.288-0.169,0.453-0.137c0.221,0.014,0.436,0.074,0.631,0.178
					c0.188,0.098,0.353,0.239,0.475,0.414c0.117,0.155,0.126,0.367,0.021,0.532c-0.501,0.866-1.072,1.831-1.714,2.896
					c-0.644,1.064-1.326,2.109-2.05,3.135c-0.681,0.973-1.425,1.901-2.227,2.777c-0.627,0.725-1.391,1.32-2.246,1.754
					c-0.386,0.184-0.818,0.245-1.241,0.178c-0.419-0.061-0.823-0.208-1.182-0.434c-0.351-0.219-0.656-0.499-0.907-0.827
					c-0.228-0.275-0.37-0.61-0.413-0.965c-0.041-0.583,0.013-1.168,0.157-1.734c0.158-0.735,0.328-1.405,0.513-2.01
					c-0.315,0.368-0.651,0.795-1.004,1.281c-0.354,0.485-0.742,1.005-1.163,1.556c-0.421,0.553-0.86,1.104-1.321,1.655
					c-0.446,0.541-0.927,1.054-1.438,1.538c-0.298,0.254-0.699,0.355-1.083,0.274c-0.499-0.056-0.985-0.197-1.438-0.414
					c-0.462-0.215-0.881-0.508-1.241-0.867c-0.324-0.279-0.493-0.696-0.454-1.123c0.1-1.09,0.337-2.163,0.71-3.191
					c0.396-1.133,0.876-2.232,1.438-3.292c0.552-1.04,1.184-2.035,1.893-2.976c0.604-0.821,1.299-1.574,2.068-2.246
					c0.392-0.342,0.868-0.573,1.38-0.669c0.412-0.053,0.831-0.005,1.221,0.138c0.419,0.158,0.816,0.371,1.182,0.631
					c0.396,0.276,0.814,0.546,1.262,0.808c0.289-0.315,0.571-0.651,0.846-1.005c0.276-0.353,0.571-0.701,0.887-1.044
					c0.221-0.25,0.562-0.356,0.887-0.275c0.415,0.056,0.813,0.203,1.163,0.433c0.349,0.22,0.65,0.508,0.885,0.847
					c0.219,0.264,0.243,0.639,0.06,0.926c-0.785,1.317-1.501,2.672-2.148,4.06c-0.456,0.974-0.852,1.974-1.182,2.995
					c-0.212,0.596-0.33,1.221-0.354,1.852c0.013,0.421,0.111,0.631,0.295,0.631c0.525-0.026,1.326-0.734,2.404-2.128
					C90.091,24.137,91.421,22.083,92.62,19.953z M83.044,21.491c0.095-0.169,0.136-0.361,0.119-0.553
					c0.002-0.25-0.045-0.497-0.138-0.729c-0.064-0.195-0.219-0.35-0.415-0.413c-0.184-0.053-0.42,0.077-0.709,0.393
					c-0.637,0.616-1.198,1.305-1.675,2.049c-0.49,0.75-0.938,1.526-1.34,2.325c-0.347,0.685-0.656,1.39-0.926,2.108
					c-0.194,0.457-0.313,0.943-0.354,1.438c0.413-0.359,0.801-0.749,1.161-1.163c0.485-0.538,0.994-1.135,1.521-1.793
					c0.527-0.657,1.039-1.313,1.536-1.97C82.323,22.529,82.729,21.965,83.044,21.491L83.044,21.491z"/>
				<path id="Path_13" fill="#FFFFFF" d="M107.2,21.294c0.058-0.171,0.236-0.272,0.414-0.235c0.208,0.03,0.408,0.097,0.592,0.197
					c0.184,0.096,0.351,0.223,0.491,0.374c0.132,0.145,0.184,0.256,0.158,0.336c-0.369,0.759-0.822,1.599-1.36,2.521
					c-0.537,0.923-1.114,1.809-1.734,2.659c-0.578,0.81-1.211,1.58-1.892,2.307c-0.514,0.58-1.119,1.072-1.792,1.458
					c-0.394,0.188-0.829,0.263-1.262,0.217c-0.471-0.039-0.935-0.139-1.38-0.296c-0.425-0.146-0.823-0.359-1.18-0.631
					c-0.286-0.182-0.497-0.462-0.592-0.786c-0.107-0.601-0.107-1.215,0-1.814c0.105-0.77,0.258-1.532,0.453-2.284
					c0.196-0.76,0.393-1.45,0.59-2.069c0.196-0.62,0.335-1.021,0.413-1.203c-0.651,0.584-1.246,1.23-1.771,1.931
					c-0.656,0.842-1.308,1.733-1.951,2.68c-0.642,0.945-1.233,1.877-1.773,2.798c-0.538,0.92-0.951,1.681-1.241,2.285
					c-0.174,0.26-0.477,0.404-0.788,0.374c-0.4,0.014-0.802-0.047-1.182-0.177c-0.377-0.122-0.73-0.309-1.045-0.551
					c-0.302-0.236-0.413-0.474-0.335-0.71c0.157-0.634,0.393-1.467,0.708-2.502s0.683-2.164,1.104-3.389
					c0.422-1.221,0.893-2.476,1.418-3.765c0.499-1.231,1.079-2.43,1.734-3.585c0.153-0.349,0.506-0.568,0.887-0.551
					c0.827,0.015,1.611,0.37,2.166,0.984c0.251,0.29,0.336,0.538,0.258,0.748c-0.263,0.552-0.545,1.11-0.848,1.675
					c-0.302,0.564-0.592,1.091-0.868,1.576c-0.274,0.486-0.512,0.913-0.708,1.28c-0.142,0.235-0.255,0.488-0.336,0.75
					c0.419-0.604,0.874-1.209,1.359-1.813c0.486-0.604,0.973-1.17,1.458-1.694c0.462-0.503,0.955-0.977,1.477-1.419
					c0.46-0.39,0.948-0.746,1.46-1.063c0.356-0.19,0.769-0.246,1.163-0.157c0.453,0.076,0.887,0.237,1.28,0.475
					c0.365,0.211,0.683,0.501,0.926,0.847c0.215,0.273,0.269,0.643,0.139,0.966c-0.211,0.525-0.487,1.176-0.829,1.95
					c-0.341,0.774-0.67,1.589-0.985,2.442c-0.315,0.854-0.592,1.676-0.827,2.464c-0.213,0.649-0.332,1.326-0.354,2.01
					c0.579-0.35,1.121-0.759,1.614-1.222c0.614-0.563,1.188-1.169,1.714-1.813c0.583-0.707,1.128-1.443,1.636-2.207
					C106.304,22.871,106.779,22.083,107.2,21.294z"/>
				<path id="Path_14" fill="#FFFFFF" d="M121.031,7.108c0.382-0.187,0.823-0.207,1.221-0.059c0.466,0.142,0.899,0.367,1.28,0.67
					c0.345,0.258,0.623,0.596,0.809,0.985c0.171,0.281,0.102,0.646-0.158,0.848c-1.242,1.03-2.302,2.262-3.135,3.644
					c-1.085,1.705-2.04,3.489-2.856,5.338c-0.868,1.947-1.612,3.949-2.226,5.99c-0.573,1.84-0.981,3.725-1.223,5.635
					c-0.21,1.41-0.156,2.847,0.157,4.237c0.134,0.959,0.909,1.7,1.874,1.793c-0.255,0.258-0.59,0.418-0.95,0.452
					c-0.46,0.062-0.928,0.008-1.359-0.157c-0.534-0.202-1.019-0.518-1.419-0.926c-0.503-0.515-0.887-1.135-1.124-1.813
					c-0.313-0.894-0.486-1.831-0.513-2.777c-0.029-1.308,0.117-2.613,0.435-3.881c0-0.105-0.013-0.164-0.039-0.178
					c-0.026-0.013-0.066,0.033-0.119,0.139c-0.211,0.368-0.446,0.762-0.71,1.183c-0.26,0.415-0.542,0.815-0.846,1.201
					c-0.303,0.379-0.592,0.715-0.868,1.004c-0.2,0.234-0.449,0.423-0.729,0.553c-0.363,0.109-0.743,0.15-1.122,0.119
					c-0.434-0.027-0.86-0.127-1.262-0.296c-0.396-0.164-0.755-0.413-1.044-0.73c-0.295-0.324-0.462-0.743-0.475-1.182
					c-0.016-0.755,0.058-1.508,0.215-2.246c0.188-0.923,0.438-1.831,0.749-2.72c0.34-0.97,0.74-1.918,1.202-2.836
					c0.439-0.894,0.961-1.745,1.557-2.543c0.516-0.698,1.126-1.322,1.814-1.852c0.571-0.458,1.265-0.739,1.994-0.809
					c0.506-0.029,1.015,0.064,1.477,0.275c0.46,0.211,0.899,0.421,1.32,0.631c0.105-0.288,0.289-0.702,0.553-1.242
					c0.262-0.538,0.564-1.136,0.907-1.793c0.341-0.656,0.714-1.34,1.122-2.049c0.406-0.71,0.814-1.38,1.221-2.011
					c0.363-0.571,0.767-1.117,1.202-1.635C120.265,7.695,120.626,7.371,121.031,7.108z M113.503,19.679
					c0.104-0.271,0.111-0.57,0.021-0.847c-0.093-0.223-0.336-0.269-0.729-0.139c-0.458,0.201-0.858,0.513-1.163,0.907
					c-0.445,0.525-0.848,1.085-1.202,1.675c-0.4,0.655-0.762,1.333-1.083,2.03c-0.304,0.646-0.567,1.313-0.788,1.993
					c-0.175,0.519-0.293,1.054-0.354,1.598c-0.039,0.446,0.047,0.709,0.256,0.787c0.105,0.053,0.303-0.078,0.592-0.394
					c0.353-0.397,0.676-0.818,0.967-1.261c0.353-0.526,0.727-1.11,1.122-1.754c0.394-0.643,0.755-1.273,1.083-1.892
					c0.328-0.616,0.61-1.167,0.848-1.654C113.246,20.393,113.39,20.041,113.503,19.679L113.503,19.679z"/>
			</g>
		</g>
		<g id="Group_3" transform="matrix(0.809, 0.588, -0.588, 0.809, 142.446, 16.146)">
			<path id="Path_15" fill="#FFFFFF" d="M121.889-10.092l-0.175-0.076c-0.91-0.407-1.879-0.671-2.871-0.779
				c-0.161-0.593-0.387-1.166-0.672-1.71c-0.834-1.387-2.051-2.503-3.503-3.214c-0.531-0.296-1.037-0.638-1.511-1.019
				c-0.216-0.146-0.354-0.379-0.381-0.637c-0.194-1.031-0.841-1.921-1.763-2.423c-0.371-0.243-0.761-0.457-1.164-0.64
				c-0.436-0.19-0.884-0.353-1.342-0.486c-0.281-0.082-0.557-0.18-0.828-0.293c-0.234-0.105-0.455-0.239-0.656-0.398
				c-0.579-0.466-1.211-0.86-1.885-1.172c-1.99-0.757-4.127-1.056-6.249-0.875c-3.575,0.191-6.926,1.806-9.303,4.486
				c-0.091,0.101-0.194,0.193-0.303,0.274c-0.877,0.713-1.668,1.549-2.445,4.55c-0.759,2.928-0.621,3.883-0.346,4.914
				c0.055,0.181,0.093,0.367,0.119,0.554c-0.049,0.362-0.125,0.718-0.229,1.067c-0.197,0.679-0.323,1.376-0.376,2.08L46.85-1.391
				c-0.546,0.063-0.937,0.556-0.876,1.102l0,0l0.105,0.917c0.063,0.547,0.557,0.938,1.103,0.876l40.056-4.598
				c0.595,0.412,1.283,0.671,2.002,0.752c-0.103,1.354,0.556,2.652,1.708,3.367c0.227,0.151,0.465,0.283,0.712,0.396
				c1.28,0.58,2.768,0.459,3.934-0.32c2.032,0.932,4.245,1.4,6.482,1.373c2.699-0.164,5.34-2.2,6.65-3.374
				c0.071,0.035,0.143,0.07,0.221,0.104c0.88,0.403,1.819,0.666,2.78,0.777c2.04,0.223,3.369-1.387,4.015-2.753
				c0.946-0.287,1.93-0.434,2.919-0.439c0.211,0.014,0.461,0.034,0.736,0.056c3.02,0.247,6.442,0.526,6.77-1.818
				C126.473-7.107,124.053-9.065,121.889-10.092z M121.12-8.843l0.145,0.066c1.758,0.834,3.254,2.146,3.453,3.217l-0.173-0.055
				c-0.89-0.249-1.76-0.563-2.606-0.935c-0.422-0.25-0.821-0.539-1.188-0.865c-0.346-0.281-0.737-0.502-1.155-0.656
				c-0.294-0.107-0.6-0.177-0.909-0.212c-0.117-0.014-0.234-0.022-0.352-0.022c0.117,0.012,0.232,0.028,0.347,0.053
				c0.3,0.059,0.591,0.154,0.867,0.285c0.389,0.182,0.744,0.427,1.052,0.725c0.351,0.37,0.735,0.706,1.151,1.003
				c0.83,0.46,1.692,0.861,2.58,1.199l0.271,0.115c-0.354,0.273-0.788,0.421-1.234,0.421c-1.08-0.028-2.151-0.182-3.193-0.459
				c-1.087-0.313-2.199-0.537-3.324-0.665c0.389-0.871,0.687-1.78,0.89-2.712c0.084-0.4,0.147-0.804,0.19-1.211
				c1.101,0.019,2.186,0.262,3.19,0.714L121.12-8.843z M88.064-9.201c-0.147-1.268-0.761-1.271,0.189-4.938
				c0.951-3.668,1.794-3.434,2.47-4.275c2.108-2.346,5.058-3.764,8.206-3.942c1.903-0.177,3.822,0.078,5.611,0.747
				c0.57,0.263,1.103,0.596,1.59,0.992c0.292,0.23,0.611,0.424,0.949,0.577c0.692,0.311,1.35,0.412,2.17,0.78
				c0.335,0.152,0.659,0.33,0.967,0.533c1.738,1.128,0.58,1.709,1.973,2.933c0.856,0.747,2.048,1.3,3.07,2.043
				c-0.095-0.043-0.191-0.085-0.279-0.121c-0.338-0.138-0.688-0.249-1.044-0.332c-0.246-0.058-0.38-0.079-0.38-0.079
				c0.452,0.181,0.888,0.399,1.303,0.652c0.472,0.274,0.906,0.608,1.289,0.995c0.474,0.463,0.796,1.06,0.918,1.71
				c0.025,0.167,0.032,0.338,0.023,0.505l-0.03,0.285l-0.055,0.3c-0.073,0.418-0.171,0.831-0.297,1.235
				c-0.277,0.882-0.629,1.74-1.052,2.565c-0.452,0.876-0.973,1.716-1.558,2.511c-0.456,0.766-1.18,1.337-2.033,1.603
				c-0.871,0.098-1.749-0.112-2.478-0.598c-0.353-0.24-0.435-0.321-0.445-0.686c0.036-0.442,0.131-0.879,0.286-1.298
				c0.306-0.955,0.6-1.878,0.881-2.754c0.279-0.876,0.525-1.703,0.76-2.469l0.352-1.092c0.11-0.342,0.195-0.691,0.255-1.045
				c0.09-0.567,0.139-1.141,0.143-1.715c0.035-0.503-0.047-1.008-0.241-1.474c-0.122,0.476-0.188,0.965-0.201,1.456
				c-0.038,0.547-0.117,1.092-0.236,1.626c-0.074,0.323-0.174,0.641-0.294,0.95l-0.286,0.679c-0.171,0.011-0.274-0.124-0.333-0.304
				c0.415-1.27,0.594-2.603,0.529-3.936c-0.021-0.373-0.086-0.742-0.189-1.101c-0.08-0.248-0.132-0.38-0.132-0.38
				s-0.025,0.14-0.048,0.395c-0.022,0.254-0.047,0.623-0.075,1.086c-0.051,1.274-0.327,2.528-0.819,3.703
				c-0.76,1.662-1.605,3.281-2.531,4.853l-0.754,1.338c-0.26,0.457-0.518,0.918-0.774,1.302c-0.432,0.768-1.16,1.324-2.014,1.544
				c-0.201,0.026-0.405,0.03-0.606,0.008c-0.108-0.001-0.19-0.034-0.285-0.042L102.18-1.98c-0.46-0.138-0.903-0.327-1.322-0.564
				c-0.373-0.233-0.518-0.442-0.549-0.712c-0.009-0.171,0.015-0.344,0.068-0.507l0.041-0.133l0.077-0.175l0.066-0.15l0.082-0.167
				c0.901-1.794,1.771-3.477,2.477-4.939c0.619-1.165,1.124-2.388,1.507-3.651c0.14-0.481,0.231-0.973,0.272-1.472
				c-0.142,0.474-0.315,0.937-0.518,1.386c-0.129,0.292-0.3,0.631-0.492,0.985c-0.8,0.751-1.021,0.263-1.063-0.269
				c0.695-1.587,1.278-2.919,1.675-3.911c0.254-0.615,0.475-1.242,0.664-1.879c0,0-0.406,0.608-0.993,1.725l-2.364,4.663
				c-0.999,1.92-2.114,4.18-3.527,6.454c-0.695,1.144-1.45,2.305-2.273,3.418c-0.38,0.547-0.804,1.061-1.268,1.54
				c-0.39,0.352-0.929,0.498-1.445,0.39c-0.305-0.05-0.605-0.126-0.899-0.227c-0.281-0.081-0.55-0.202-0.798-0.357
				c-0.408-0.294-0.645-0.771-0.632-1.273c-0.016-0.593,0.114-1.182,0.374-1.716c0.272-0.604,0.592-1.208,0.899-1.804l1.837-3.431
				c0.587-1.095,1.145-2.129,1.616-3.135c0.723-1.597,1.348-3.239,1.87-4.913c0.201-0.639,0.35-1.292,0.446-1.953
				c-0.349,0.568-0.662,1.157-0.94,1.764l-0.929,2.071c-0.164,0.368-0.338,0.76-0.522,1.168c0.016-0.13,0.032-0.259,0.041-0.388
				c0.04-0.415,0.057-0.833,0.05-1.249c-0.003-0.363-0.034-0.727-0.095-1.086c-0.023-0.142-0.054-0.284-0.094-0.423
				c-0.024-0.108-0.058-0.213-0.104-0.313l-0.099-0.266c0,0,0.006,0.102,0.018,0.285c0.009,0.106,0.007,0.212-0.006,0.317
				c-0.006,0.136-0.021,0.27-0.046,0.403c-0.058,0.334-0.143,0.662-0.252,0.982c-0.082,0.253-0.196,0.516-0.305,0.776
				c-0.112,0.101-0.216,0.211-0.31,0.328c-0.679,0.823-1.162,1.79-1.413,2.826c-0.021,0.084-0.037,0.166-0.058,0.251
				c-0.341-0.526-0.722-1.025-1.14-1.492c0.255,0.657,0.449,1.337,0.583,2.03c0.09,0.464,0.148,0.933,0.179,1.404
				c0.012,0.19,0.014,0.335,0.015,0.438c-0.008,0.126-0.019,0.257-0.026,0.375c-0.004,0.117-0.007,0.219-0.011,0.329l-1.052,1.72
				l-4.013,0.46C87.594-7.183,88.147-8.479,88.064-9.201z M53.484,0.161l-6.364,0.731c-0.209,0.025-0.398-0.125-0.421-0.334l0,0
				l-0.105-0.917c-0.024-0.208,0.125-0.396,0.334-0.421l8.262-0.949c-0.05,0.12-0.068,0.25-0.057,0.38l0.074,0.621l-7.876,1.291
				L53.484,0.161z M55.722-1.467l-0.03-0.256c-0.005-0.05,0.031-0.096,0.083-0.104l35.33-4.056c-0.094,0.157-0.19,0.319-0.278,0.475
				L55.821-1.39C55.773-1.386,55.731-1.42,55.722-1.467z M55.374-0.056l0-0.015l0.011,0.015L55.374-0.056z"/>
			<path id="Path_16" fill="#FFFFFF" d="M97.522-12.312c0.347-0.891,0.6-1.749,0.811-2.481c0.21-0.732,0.332-1.361,0.425-1.794
				l0.125-0.689l-0.26,0.649c-0.149,0.416-0.402,0.999-0.678,1.702c-0.277,0.703-0.644,1.506-1.007,2.374
				c-0.363,0.869-0.804,1.771-1.263,2.66C95.24-8.989,94.774-8.099,94.31-7.28c-0.462,0.817-0.882,1.593-1.289,2.233
				c-0.405,0.639-0.709,1.195-0.949,1.565L91.71-2.885l0.474-0.512c0.285-0.337,0.723-0.808,1.177-1.425
				c0.454-0.618,0.989-1.33,1.493-2.141c0.503-0.811,1-1.703,1.476-2.608C96.765-10.485,97.171-11.42,97.522-12.312z"/>
			<path id="Path_17" fill="#FFFFFF" d="M105.556-10.985c0.246-0.675,0.407-1.329,0.551-1.883c0.145-0.554,0.209-1.034,0.269-1.362
				c0.044-0.333,0.069-0.522,0.069-0.522s-0.074,0.175-0.205,0.483c-0.131,0.309-0.316,0.746-0.522,1.273
				c-0.206,0.527-0.488,1.128-0.75,1.781c-0.262,0.653-0.582,1.335-0.914,2.008c-0.307,0.685-0.634,1.362-0.962,1.987
				c-0.327,0.624-0.609,1.222-0.891,1.714c-0.281,0.494-0.48,0.927-0.646,1.216l-0.243,0.468l0.358-0.388
				c0.216-0.256,0.543-0.61,0.876-1.077c0.334-0.467,0.733-1.009,1.096-1.627c0.365-0.618,0.725-1.296,1.069-1.983
				C105.02-9.599,105.308-10.311,105.556-10.985z"/>
			<path id="Path_18" fill="#FFFFFF" d="M112.722-11.549c-0.12,0.407-0.323,0.864-0.499,1.367l-0.58,1.585l-0.492,1.614
				c-0.159,0.515-0.255,1.015-0.365,1.434c-0.109,0.418-0.154,0.782-0.205,1.03c-0.038,0.253-0.059,0.398-0.059,0.398l0.191-0.354
				c0.107-0.228,0.29-0.546,0.458-0.949c0.169-0.403,0.39-0.855,0.576-1.363l0.585-1.587l0.49-1.621
				c0.134-0.482,0.234-0.975,0.298-1.471c0.045-0.351,0.06-0.706,0.042-1.06c-0.018-0.257-0.041-0.4-0.041-0.4
				s-0.029,0.143-0.099,0.387C112.966-12.293,112.847-11.954,112.722-11.549z"/>
		</g>
	</g>
</g>
</svg>
