<?xml version="1.0" encoding="utf-8"?>
<!-- Generator: Adobe Illustrator 16.0.0, SVG Export Plug-In . SVG Version: 6.00 Build 0)  -->
<!DOCTYPE svg PUBLIC "-//W3C//DTD SVG 1.1//EN" "http://www.w3.org/Graphics/SVG/1.1/DTD/svg11.dtd">
<svg version="1.1" id="Layer_1" xmlns="http://www.w3.org/2000/svg" xmlns:xlink="http://www.w3.org/1999/xlink" x="0px" y="0px"
	 width="70px" height="70px" viewBox="0 0 70 70" enable-background="new 0 0 70 70" xml:space="preserve">
<path fill="#FFFFFF" d="M38.456,39.833c0,0,5.99,0.407,6.588,0.998c0.597,0.589,1.093,6.572,1.093,6.572
	c0.021,0.258,0.077,0.473,0.127,0.473c0.049,0,0.189-0.215,0.208-0.477c0,0,0.407-5.987,0.997-6.587
	c0.591-0.599,6.573-1.092,6.573-1.092c0.26-0.021,0.475-0.168,0.473-0.216c0-0.049-0.215-0.103-0.476-0.121
	c0,0-5.989-0.407-6.587-0.996c-0.6-0.591-1.093-6.573-1.093-6.573c-0.021-0.261-0.078-0.474-0.127-0.474s-0.19,0.215-0.209,0.476
	c0,0-0.409,5.989-0.998,6.587c-0.59,0.598-6.571,1.091-6.571,1.091c-0.26,0.021-0.475,0.079-0.475,0.128
	C37.979,39.673,38.194,39.815,38.456,39.833"/>
<path fill="#FFFFFF" d="M51.951,14.239c0,0,3.686,0.25,4.054,0.614c0.367,0.363,0.672,4.044,0.672,4.044
	c0.012,0.161,0.047,0.291,0.078,0.292c0.03,0,0.118-0.133,0.128-0.293c0,0,0.251-3.686,0.614-4.054
	c0.362-0.368,4.044-0.672,4.044-0.672c0.161-0.013,0.29-0.102,0.29-0.133c0-0.03-0.131-0.063-0.292-0.074
	c0,0-3.687-0.251-4.053-0.614c-0.368-0.363-0.673-4.044-0.673-4.044c-0.013-0.161-0.047-0.292-0.078-0.292
	c-0.029,0-0.116,0.132-0.128,0.292c0,0-0.25,3.685-0.614,4.053c-0.362,0.369-4.044,0.673-4.044,0.673
	c-0.16,0.013-0.291,0.048-0.291,0.078C51.658,14.141,51.792,14.229,51.951,14.239"/>
<g>
	<path fill="#FFFFFF" d="M36.732,14.187c0.403,0.265,1.006,0.645,1.593,1.047c4.229,2.897,8.452,5.81,12.689,8.697
		c5.357,3.653,10.729,7.288,16.091,10.936c0.285,0.195,0.62,0.398,0.776,0.683c0.215,0.398,0.137,0.826-0.274,1.144
		c-0.422,0.328-0.805,0.271-1.218-0.011c-4.076-2.776-8.155-5.55-12.235-8.322c-4.578-3.111-9.162-6.216-13.737-9.33
		c-1.554-1.055-3.092-2.131-4.64-3.191c-0.456-0.312-0.559-0.745-0.367-1.216C35.602,14.153,35.997,13.981,36.732,14.187"/>
	<path fill-rule="evenodd" clip-rule="evenodd" fill="#FFFFFF" d="M21.538,7.602c-1.642-0.688-3.005-0.568-4.191,0.076
		C18.681,7.505,20.083,7.466,21.538,7.602 M9.065,19.345c-0.637,0.85-1.322,1.624-2.075,2.258
		c5.228,7.604,10.454,15.206,15.679,22.808c4.411-3.577,9.591-15.919,14.111-14.213c-4.651-2.06-13.286-0.4-18.261,2.9L9.065,19.345
		z"/>
	<path fill-rule="evenodd" clip-rule="evenodd" fill="#FFFFFF" d="M21.538,7.602c-2.649-1.121-5.031-0.609-7.286,0.717
		C16.459,7.687,18.91,7.355,21.538,7.602 M6.326,15.362C4.968,16.7,3.6,17.965,2.181,18.941
		c5.228,7.605,10.454,15.206,15.679,22.806c4.969-3.279,13.872-13.448,18.845-11.583c-4.67-2.006-13.238-0.347-18.185,2.934
		L6.326,15.362z"/>
	<path fill-rule="evenodd" clip-rule="evenodd" fill="#FFFFFF" d="M21.538,7.602C14.3,5.588,8.979,9.135,2.62,13.519
		C7.847,21.12,13.074,28.723,18.3,36.325c4.641-3.063,12.356-7.727,17.382-6.525c-4.813-1.405-12.556,0.243-17.162,3.298
		c-4.645-6.755-8.979-13.06-13.622-19.813C7.855,10.972,13.967,6.891,21.538,7.602"/>
	
		<rect x="24.195" y="4.944" transform="matrix(-0.9678 0.2517 -0.2517 -0.9678 55.2654 8.5943)" fill="#FFFFFF" width="5.777" height="5.776"/>
	
		<rect x="24.173" y="13.395" transform="matrix(-0.9678 0.2518 -0.2518 -0.9678 55.0576 23.4553)" fill="#FFFFFF" width="3.709" height="3.712"/>
	
		<rect x="30.428" y="16.485" transform="matrix(-0.9677 0.252 -0.252 -0.9677 69.4262 28.9441)" fill="#FFFFFF" width="4.863" height="4.867"/>
	<polygon fill="#FFFFFF" points="33.175,9.015 36.989,8.023 37.979,11.833 34.17,12.826 	"/>
	
		<rect x="21.296" y="19.431" transform="matrix(-0.9679 0.2512 -0.2512 -0.9679 49.5904 35.0544)" fill="#FFFFFF" width="2.523" height="2.521"/>
	
		<rect x="25.819" y="21.24" transform="matrix(-0.968 0.2511 -0.2511 -0.968 58.9412 37.4791)" fill="#FFFFFF" width="2.52" height="2.52"/>
	
		<rect x="21.024" y="25.258" transform="matrix(-0.9678 0.2518 -0.2518 -0.9678 49.4394 45.729)" fill="#FFFFFF" width="1.54" height="1.539"/>
</g>
</svg>
